<?xml version="1.0" standalone="no"?>
<!DOCTYPE svg PUBLIC "-//W3C//DTD SVG 20010904//EN"
 "http://www.w3.org/TR/2001/REC-SVG-20010904/DTD/svg10.dtd">
<svg version="1.0" xmlns="http://www.w3.org/2000/svg"
 width="700.000000pt" height="700.000000pt" viewBox="0 0 700.000000 700.000000"
 preserveAspectRatio="xMidYMid meet">
<metadata>
Created by potrace 1.14, written by Peter Selinger 2001-2017
</metadata>
<g transform="translate(0.000000,700.000000) scale(0.100000,-0.100000)"
fill="#000000" stroke="none">
<path d="M4070 5720 c-284 -26 -393 -61 -623 -200 -46 -27 -128 -70 -183 -96
-54 -25 -130 -61 -169 -79 -65 -30 -134 -77 -342 -233 -46 -35 -96 -68 -111
-74 -15 -6 -97 -14 -182 -19 -100 -5 -199 -16 -278 -33 -178 -37 -330 -50
-426 -37 -42 6 -97 11 -121 11 -37 0 -51 7 -95 44 -60 51 -104 63 -154 42 -50
-21 -65 -51 -93 -184 -35 -164 -37 -202 -19 -316 9 -56 21 -184 26 -286 6
-102 11 -203 12 -225 l3 -40 -81 0 c-54 0 -86 -5 -97 -14 -21 -16 -50 -110
-67 -211 -15 -87 -10 -199 21 -495 16 -158 21 -282 23 -595 3 -388 15 -728 37
-1065 7 -93 12 -252 13 -352 1 -167 3 -184 22 -210 38 -51 47 -52 324 -43
l255 8 180 47 c163 42 191 46 295 46 76 0 170 -8 280 -26 223 -36 452 -43 671
-22 90 9 297 20 459 24 362 8 329 8 765 -5 333 -10 368 -13 460 -36 112 -29
125 -30 177 -16 84 24 148 118 148 220 0 30 -11 111 -24 180 -16 82 -28 194
-35 325 -11 206 -37 445 -71 645 -40 241 -43 305 -31 880 6 300 14 574 17 610
4 54 1 71 -16 98 -28 46 -81 67 -134 53 -23 -5 -70 -12 -106 -16 -36 -3 -91
-11 -123 -17 -38 -7 -61 -8 -68 -1 -21 21 -27 758 -7 842 10 41 9 46 -11 62
-21 17 -40 18 -209 14 -207 -4 -441 19 -709 71 -166 32 -254 29 -350 -10 -76
-32 -126 -33 -153 -6 -42 42 -15 80 92 134 35 18 101 53 148 78 47 26 122 61
167 78 46 17 105 47 133 66 52 36 90 43 109 21 6 -8 14 -52 17 -100 8 -97 25
-136 76 -167 73 -45 120 -2 126 113 3 62 -1 87 -32 179 -20 59 -33 114 -30
123 9 22 86 20 107 -2 8 -10 20 -37 27 -61 6 -24 27 -84 46 -135 19 -51 40
-114 46 -141 13 -59 46 -96 87 -96 43 0 60 9 76 40 17 34 7 77 -49 213 -43
101 -44 140 -5 145 54 6 89 -41 153 -208 43 -111 74 -155 123 -175 52 -22 77
-19 112 14 41 39 40 76 -4 163 -31 58 -33 69 -20 74 10 4 27 -3 43 -18 15 -14
46 -35 69 -48 23 -13 56 -44 74 -69 52 -75 89 -110 181 -172 75 -50 94 -59
132 -59 62 0 103 36 115 103 l9 48 -117 127 c-264 286 -270 291 -464 322 -156
25 -239 50 -351 108 -101 52 -134 56 -296 42z m-1055 -880 c50 -6 119 -19 155
-29 36 -10 133 -29 215 -41 83 -12 186 -28 230 -36 44 -7 152 -25 240 -39 159
-26 161 -26 252 -9 71 13 106 15 158 8 l67 -9 2 -395 c2 -245 -1 -400 -7 -407
-13 -18 -67 -16 -112 3 -31 13 -65 14 -214 8 -206 -8 -483 9 -518 32 -20 13
-23 23 -23 81 0 64 -1 67 -40 104 -24 23 -60 44 -90 53 -47 14 -56 14 -113 -4
-80 -26 -82 -25 -152 12 -57 30 -66 31 -202 36 -78 3 -198 -1 -266 -7 -107
-11 -144 -10 -270 5 -135 15 -149 16 -187 0 -22 -9 -43 -16 -45 -16 -31 0 119
156 180 188 22 11 66 43 98 71 31 27 86 71 121 96 73 51 135 127 186 223 l35
67 70 6 c117 9 137 9 230 -1z m-525 -32 c-1 -13 -723 -730 -748 -743 -29 -14
-44 -15 -100 -6 -37 5 -78 9 -92 8 -15 -1 -24 3 -23 10 6 28 4 77 -7 218 -12
145 -9 362 5 397 13 32 130 52 211 37 39 -7 71 -7 107 1 28 6 126 18 217 26
91 8 219 23 285 33 131 20 145 22 145 19z m-49 -828 c16 -9 19 -22 19 -89 0
-98 -6 -105 -89 -95 l-61 7 0 93 0 94 56 0 c30 0 64 -5 75 -10z m387 -2 c17
-22 -1 -148 -24 -165 -43 -32 -125 -28 -144 7 -18 34 -24 136 -9 146 36 22
161 31 177 12z m-718 -77 c-3 -33 -8 -63 -12 -66 -3 -4 -35 -7 -69 -8 l-64 -2
-13 54 c-19 78 -16 81 81 81 l83 0 -6 -59z m1089 -13 c5 -13 12 -42 16 -65 l7
-43 -51 0 c-55 0 -63 7 -74 67 -6 28 -3 35 21 47 40 22 71 20 81 -6z m1614
-103 c5 -25 3 -111 -7 -235 -33 -413 -30 -567 18 -930 13 -102 27 -221 31
-265 3 -44 20 -217 36 -385 24 -245 29 -344 27 -500 l-3 -195 -165 -3 c-91 -2
-280 4 -420 13 -300 18 -721 20 -1014 4 -217 -12 -394 -5 -625 26 -337 44
-511 41 -811 -16 -202 -38 -407 -50 -443 -26 -21 14 -24 27 -40 188 -25 252
-26 259 -42 669 -20 503 -38 1423 -30 1479 9 62 37 113 82 150 l38 31 132 0
c120 0 135 -2 153 -20 11 -11 20 -31 20 -44 0 -14 11 -38 24 -53 23 -26 30
-28 114 -31 49 -2 123 1 163 8 l74 11 26 -30 25 -31 131 10 c151 11 178 16
215 43 27 20 27 20 77 -2 35 -15 71 -21 123 -21 46 -1 93 -8 128 -20 72 -25
77 -25 117 10 41 36 51 37 228 9 172 -26 206 -24 223 16 38 88 38 88 272 81
107 -3 256 -11 330 -17 187 -14 268 -5 430 46 163 52 261 75 315 72 37 -2 40
-4 48 -42z"/>
<path d="M4135 3553 c-16 -2 -89 -12 -162 -23 -72 -11 -209 -24 -305 -30 -95
-6 -240 -17 -323 -26 -185 -20 -286 -15 -465 26 l-135 31 -460 4 c-253 3 -491
7 -530 11 -66 6 -71 5 -94 -20 -35 -37 -32 -82 6 -116 l30 -27 294 -6 c162 -3
348 -10 414 -16 66 -6 229 -15 362 -21 133 -6 292 -17 354 -26 109 -16 112
-16 194 5 103 28 129 25 133 -10 7 -56 -48 -78 -153 -61 -38 7 -162 19 -275
27 -113 8 -277 22 -365 30 -217 20 -490 35 -646 35 -139 0 -188 -12 -208 -48
-14 -26 1 -68 26 -76 10 -3 83 -5 163 -5 110 1 186 -5 315 -25 147 -22 201
-26 405 -26 213 0 247 -2 358 -25 l124 -26 81 21 c133 33 155 27 191 -55 26
-58 48 -75 96 -75 33 0 80 37 80 63 0 12 38 16 218 21 317 9 440 19 485 40 67
33 89 115 42 161 -31 32 -71 32 -163 0 -100 -35 -181 -45 -373 -45 -181 0
-212 7 -190 47 16 31 56 41 219 53 81 6 197 15 258 20 60 6 153 10 205 10 113
0 129 10 137 89 4 43 1 53 -21 75 -26 26 -29 26 -159 25 -73 -1 -146 -4 -163
-6z"/>
<path d="M2145 3079 c-90 -13 -149 -36 -212 -83 -75 -55 -202 -192 -263 -283
-103 -154 -115 -241 -80 -565 26 -250 37 -275 175 -430 152 -170 212 -194 450
-185 225 9 329 42 466 146 225 169 310 394 296 780 -9 250 -51 378 -157 474
-102 92 -197 127 -394 146 -125 12 -195 12 -281 0z m419 -195 c98 -34 197
-155 231 -285 37 -137 9 -419 -57 -579 -73 -177 -283 -300 -511 -300 -121 0
-198 37 -310 147 -69 69 -114 154 -128 246 -11 71 2 317 21 404 34 151 161
290 308 338 139 45 358 59 446 29z"/>
<path d="M3930 3004 c-151 -32 -444 -162 -518 -229 -81 -72 -182 -266 -222
-421 -75 -291 49 -601 305 -763 148 -94 334 -92 526 5 215 107 364 258 468
474 50 102 65 172 59 275 -7 107 -22 147 -140 365 -114 209 -154 265 -212 291
-50 23 -170 24 -266 3z m126 -250 c21 -15 55 -41 74 -58 19 -17 56 -46 81 -64
67 -49 84 -87 104 -236 27 -200 19 -236 -81 -361 -199 -251 -289 -316 -438
-317 -59 0 -79 5 -142 37 -167 82 -266 241 -266 425 0 133 52 305 119 395 33
44 55 58 173 117 164 82 177 86 266 87 61 1 77 -3 110 -25z"/>
<path d="M4647 5042 c-34 -36 -35 -80 -3 -166 42 -112 69 -136 147 -136 49 0
89 35 89 77 0 37 -34 142 -58 183 -45 73 -127 93 -175 42z"/>
</g>
</svg>
